# xmcd CD database file
#
# Track frame offsets:
#	150
#	14455
#	33625
#	51445
#	80805
#	101647
#	121622
#	141122
#	153595
#	176545
#	190785
#	206509
#	219782
#	233182
#	253212
#	265157
#	278955
#	298187
#	309357
#	326280
#
# Disc length: 4544 seconds
#
# Revision: 1
# Processed by: cddbd v1.5.1PL0 Copyright (c) Steve Scherf et al.
# Submitted via: CDex 1.51
#
DISCID=2511be14
DTITLE=Bintangs - I'm On My Own Again CD 2
DYEAR=2001
DGENRE=Blues
TTITLE0=One Hundred Pounds
TTITLE1=Louisiana (Blues)
TTITLE2=Fighting A Losing Battle
TTITLE3=Still A Fool
TTITLE4=Blues With A Feeling
TTITLE5=My Babe
TTITLE6=Blues On The Ceiling
TTITLE7=Lion Tamer
TTITLE8=Hold It Susie - Juvenile Junk
TTITLE9=Hello Goodbye
TTITLE10=You Got Love
TTITLE11=We're Gonna Make It
TTITLE12=Be Rolling
TTITLE13=Chicky Jamboree
TTITLE14=You Can't Judge A Book
TTITLE15=Mustang Driver
TTITLE16=Take Me Down
TTITLE17=Jambalaya
TTITLE18=Lunatic
TTITLE19=Wilo,...... Manger!
EXTD=YEAR: 2001
EXTT0=
EXTT1=
EXTT2=
EXTT3=
EXTT4=
EXTT5=
EXTT6=
EXTT7=
EXTT8=
EXTT9=
EXTT10=
EXTT11=
EXTT12=
EXTT13=
EXTT14=
EXTT15=
EXTT16=
EXTT17=
EXTT18=
EXTT19=
PLAYORDER=
